<?xml version="1.0" encoding="UTF-8" standalone="no" ?>
<svg version="1.1" id="Layer_1" xmlns="http://www.w3.org/2000/svg" xmlns:xlink="http://www.w3.org/1999/xlink" x="0px" y="0px"
	 viewBox="0 0 1000 1000" style="enable-background:new 0 0 1000 1000;" xml:space="preserve">
<style type="text/css">
	.st0{fill:#1C252C;}
	.st1{fill:#FFED31;}
</style>
<g transform="translate(-137.5,-22.390163)">
	<path id="path2998" class="st0" d="M137.5,237.4v252.3h132.1c52,0,100.1-18.3,100.1-71.9c0-36.2-26.1-52.8-54.8-61.4
		c17.5-7,37.3-21.8,37.3-52.7c0-39.6-39.2-66.4-92.1-66.4L137.5,237.4L137.5,237.4z M218.4,296.2h29.8c12.1,0,21.3,9.5,21.3,19.1
		c0,8.9-9.6,18.5-21.3,18.5h-29.8L218.4,296.2L218.4,296.2z M218.4,386.2h39.3c13.7,0,25.2,10.4,25.2,22.3
		c0,12.6-10.8,23.1-27.6,23.1h-36.9L218.4,386.2L218.4,386.2z"/>
	<path id="path3005" class="st0" d="M203,517.2v252.3h132.1c52,0,100.1-18.3,100.1-71.9c0-36.2-26.1-52.8-54.8-61.4
		c17.5-7,37.3-21.8,37.3-52.7c0-39.6-39.2-66.4-92.1-66.4H203L203,517.2z M283.9,576h29.8c12.1,0,21.3,9.5,21.3,19.1
		c0,8.9-9.6,18.5-21.3,18.5h-29.8V576L283.9,576z M283.9,666h39.3c13.7,0,25.2,10.4,25.2,22.3c0,12.6-10.8,23.1-27.6,23.1h-36.9
		L283.9,666L283.9,666z"/>
	<path id="path3007" class="st0" d="M376,489.7V237.4h203.5v60.9H456.7v33.1h99.7v57.1h-99.7V429h122.8v60.7H376z"/>
	<path id="path3009" class="st0" d="M689.8,496.9c57.3,0,103.1-32.7,103.1-85.6c0-85.5-111.2-72.3-111.2-98.9
		c0-10.3,10.8-15.7,21.9-15.7c19.1,0,32.9,12.6,32.9,12.6l47.8-45.5c-19.1-18.2-49.3-33.5-90-33.5c-61.1,0-101.1,36.3-101.1,80
		c0,86.5,109.6,74,109.6,101.1c0,9.5-9.2,19.1-25.8,19.1c-18.9,0-33.8-11.4-45.4-21l-48.1,45.9C602.8,474.1,633.9,496.9,689.8,496.9
		z"/>
	<path id="path3011" class="st0" d="M855.2,489.7V298.1h-66.7v-60.7h214.2v60.7h-66.7v191.6H855.2z"/>
	<path id="path3013" class="st0" d="M437.9,517.1h80.7v151.2c0,15.3,15.3,29.5,31.2,29.5c15,0,30.2-12.8,30.2-30.3V517.1h80.5v149.3
		c0,59.3-49.2,106.5-112.8,106.5c-64,0-109.8-51.4-109.8-109.7L437.9,517.1z"/>
	<path id="path3015" class="st0" d="M760,769.4v-90.2l-94.8-162.2h81.6l53.7,86.9l53.9-86.9h81.8l-95.2,163.1v89.2H760z"/>
	<path id="path3017" class="st1" d="M936.1,655.1l-47.6,47.6V767l47.6,47.6h201.4V655.1H936.1z"/>
	<path id="path3024" class="st0" d="M928.3,734.9c0,5.9-4.8,10.7-10.7,10.7c-5.9,0-10.7-4.8-10.7-10.7s4.8-10.7,10.7-10.7
		C923.5,724.2,928.3,728.9,928.3,734.9z"/>
</g>
</svg>